/* XPM */
static char *close_pressed[] = {
/* columns rows colors chars-per-pixel */
"20 23 4 1 ",
"  c None",
". c black",
"X c #868A8E",
"o c #C3C3C3",
/* pixels */
"                    ",
"                    ",
"                    ",
"....................",
".XXXXXXXXXXXXXXXXXX.",
".Xooooooooooooooooo.",
".Xooooooooooooooooo.",
".Xooooooooooooooooo.",
".Xooooooooooooooooo.",
".Xooooooooooooooooo.",
".Xooooooooooooooooo.",
".Xooooo..oooo..oooo.",
".Xoooooo..oo..ooooo.",
".Xooooooo....oooooo.",
".Xoooooooo..ooooooo.",
".Xooooooo....oooooo.",
".Xoooooo..oo..ooooo.",
".Xooooo..oooo..oooo.",
".Xooooooooooooooooo.",
".Xooooooooooooooooo.",
".Xooooooooooooooooo.",
".Xooooooooooooooooo.",
"...................."
};
