/* XPM */
static char *left_inactive[] = {
/* columns rows colors chars-per-pixel */
"4 32 2 1 ",
"  c black",
". c #C3C3C3",
/* pixels */
" .. ",
" .. ",
" .. ",
" .. ",
" .. ",
" .. ",
" .. ",
" .. ",
" .. ",
" .. ",
" .. ",
" .. ",
" .. ",
" .. ",
" .. ",
" .. ",
" .. ",
" .. ",
" .. ",
" .. ",
" .. ",
" .. ",
" .. ",
" .. ",
" .. ",
" .. ",
" .. ",
" .. ",
" .. ",
" .. ",
" .. ",
" .. "
};
