/* XPM */
static char *maximize_toggled_inactive[] = {
/* columns rows colors chars-per-pixel */
"20 23 5 1 ",
"  c None",
". c black",
"X c #868A8E",
"o c #C3C3C3",
"O c white",
/* pixels */
"                    ",
"                    ",
"                    ",
"....................",
".OOOOOOOOOOOOOOOOOX.",
".OoooooooooooooooXX.",
".OoooooooooooooooXX.",
".OoooooooooooooooXX.",
".Oooooooo.oooooooXX.",
".Ooooooo...ooooooXX.",
".Oooooo.....oooooXX.",
".Ooooo.......ooooXX.",
".OoooooooooooooooXX.",
".OoooooooooooooooXX.",
".Ooooo.......ooooXX.",
".Oooooo.....oooooXX.",
".Ooooooo...ooooooXX.",
".Oooooooo.oooooooXX.",
".OoooooooooooooooXX.",
".OoooooooooooooooXX.",
".OXXXXXXXXXXXXXXXXX.",
".XXXXXXXXXXXXXXXXXX.",
"...................."
};
