/* XPM */
static char *maximize_pressed[] = {
/* columns rows colors chars-per-pixel */
"20 23 4 1 ",
"  c None",
". c black",
"X c #868A8E",
"o c #C3C3C3",
/* pixels */
"                    ",
"                    ",
"                    ",
"....................",
".XXXXXXXXXXXXXXXXXX.",
".Xooooooooooooooooo.",
".Xooooooooooooooooo.",
".Xooooooooooooooooo.",
".Xooooooooooooooooo.",
".Xooooooooooooooooo.",
".Xooooooooooooooooo.",
".Xooooooooooooooooo.",
".Xoooooooo.oooooooo.",
".Xooooooo...ooooooo.",
".Xoooooo.....oooooo.",
".Xooooo.......ooooo.",
".Xooooooooooooooooo.",
".Xooooooooooooooooo.",
".Xooooooooooooooooo.",
".Xooooooooooooooooo.",
".Xooooooooooooooooo.",
".Xooooooooooooooooo.",
"...................."
};
