/* XPM */
static char *menu_pressed[] = {
/* columns rows colors chars-per-pixel */
"20 23 5 1 ",
"  c None",
". c black",
"X c #868A8E",
"o c #C3C3C3",
"O c white",
/* pixels */
"                    ",
"                    ",
"                    ",
"....................",
".XXXXXXXXXXXXXXXXXX.",
".XXXXXXXXXXXXXXXXXX.",
".XXXXXXXXXXXXXXXXXX.",
".XXXXXXXXXXXXXXXXXX.",
".XXXXXXXXXXXXXXXXXX.",
".XXXXXXXXXXXXXXXXXX.",
".XXXXXXXXXXXXXXXXXX.",
".XXOOOOOOOOOOOOOXXX.",
".XXO...........OoXX.",
".XXOOOOOOOOOOOOOoXX.",
".XXXoooooooooooooXX.",
".XXXXXXXXXXXXXXXXXX.",
".XXXXXXXXXXXXXXXXXX.",
".XXXXXXXXXXXXXXXXXX.",
".XXXXXXXXXXXXXXXXXX.",
".XXXXXXXXXXXXXXXXXX.",
".XXXXXXXXXXXXXXXXXX.",
".XXXXXXXXXXXXXXXXXX.",
"...................."
};
