/* XPM */
static char *right_active[] = {
/* columns rows colors chars-per-pixel */
"4 32 2 1 ",
"  c black",
". c #CF9D6E",
/* pixels */
" .. ",
" .. ",
" .. ",
" .. ",
" .. ",
" .. ",
" .. ",
" .. ",
" .. ",
" .. ",
" .. ",
" .. ",
" .. ",
" .. ",
" .. ",
" .. ",
" .. ",
" .. ",
" .. ",
" .. ",
" .. ",
" .. ",
" .. ",
" .. ",
" .. ",
" .. ",
" .. ",
" .. ",
" .. ",
" .. ",
" .. ",
" .. "
};
