/* XPM */
static char *shade_inactive[] = {
/* columns rows colors chars-per-pixel */
"20 23 5 1 ",
"  c None",
". c black",
"X c #868A8E",
"o c #C3C3C3",
"O c white",
/* pixels */
"                    ",
"                    ",
"                    ",
"....................",
".oooooooooooooooooo.",
".oooooooooooooooooo.",
".oooooooooooooooooo.",
".oooooooooooooooooo.",
".oooooooooooooooooo.",
".oooooooooooooooooo.",
".oooooooooooooooooo.",
".oooooooo..oooooooo.",
".ooooooo.OO.ooooooo.",
".oooooo.OOOO.oooooo.",
".oooooo......Xooooo.",
".oooooooXXXXXXooooo.",
".oooooooooooooooooo.",
".oooooooooooooooooo.",
".oooooooooooooooooo.",
".oooooooooooooooooo.",
".oooooooooooooooooo.",
".oooooooooooooooooo.",
"...................."
};
