/* XPM */
static char *shade_toggled_inactive[] = {
/* columns rows colors chars-per-pixel */
"20 23 5 1 ",
"  c None",
". c black",
"X c #868A8E",
"o c #C3C3C3",
"O c white",
/* pixels */
"                    ",
"                    ",
"                    ",
"....................",
".oooooooooooooooooo.",
".oooooooooooooooooo.",
".oooooooooooooooooo.",
".oooooooooooooooooo.",
".oooooooooooooooooo.",
".oooooooooooooooooo.",
".oooooooooooooooooo.",
".oooooo......oooooo.",
".oooooo.OOOO.Xooooo.",
".ooooooo.OO.XXooooo.",
".oooooooo..XXoooooo.",
".oooooooooXXooooooo.",
".oooooooooooooooooo.",
".oooooooooooooooooo.",
".oooooooooooooooooo.",
".oooooooooooooooooo.",
".oooooooooooooooooo.",
".oooooooooooooooooo.",
"...................."
};
