/* XPM */
static char *title_1_inactive[] = {
/* columns rows colors chars-per-pixel */
"8 23 2 1 ",
"  c black",
". c #C3C3C3",
/* pixels */
"        ",
"........",
"........",
"        ",
"........",
"........",
"........",
"........",
"........",
"........",
"........",
"........",
"........",
"........",
"........",
"........",
"........",
"........",
"........",
"........",
"........",
"........",
"        "
};
