/* XPM */
static char *top_right_active[] = {
/* columns rows colors chars-per-pixel */
"23 23 3 1 ",
"  c black",
". c #CF9D6E",
"X c #408080",
/* pixels */
"                       ",
" ..................... ",
" ..................... ",
"                    .. ",
"XXXXXXXXXXXXXXXXXXX .. ",
"XXXXXXXXXXXXXXXXXXX .. ",
"XXXXXXXXXXXXXXXXXXX .. ",
"XXXXXXXXXXXXXXXXXXX .. ",
"XXXXXXXXXXXXXXXXXXX .. ",
"XXXXXXXXXXXXXXXXXXX .. ",
"XXXXXXXXXXXXXXXXXXX .. ",
"XXXXXXXXXXXXXXXXXXX .. ",
"XXXXXXXXXXXXXXXXXXX .. ",
"XXXXXXXXXXXXXXXXXXX .. ",
"XXXXXXXXXXXXXXXXXXX .. ",
"XXXXXXXXXXXXXXXXXXX .. ",
"XXXXXXXXXXXXXXXXXXX .. ",
"XXXXXXXXXXXXXXXXXXX .. ",
"XXXXXXXXXXXXXXXXXXX .. ",
"XXXXXXXXXXXXXXXXXXX .. ",
"XXXXXXXXXXXXXXXXXXX .. ",
"XXXXXXXXXXXXXXXXXXX .. ",
"                       "
};
