/* XPM */
static char *top_right_inactive[] = {
/* columns rows colors chars-per-pixel */
"23 23 2 1 ",
"  c black",
". c #C3C3C3",
/* pixels */
"                       ",
" ..................... ",
" ..................... ",
"                    .. ",
"................... .. ",
"................... .. ",
"................... .. ",
"................... .. ",
"................... .. ",
"................... .. ",
"................... .. ",
"................... .. ",
"................... .. ",
"................... .. ",
"................... .. ",
"................... .. ",
"................... .. ",
"................... .. ",
"................... .. ",
"................... .. ",
"................... .. ",
"................... .. ",
"                       "
};
